<svg width="48" height="48" viewBox="0 0 48 48" fill="none" xmlns="http://www.w3.org/2000/svg">
<path fill-rule="evenodd" clip-rule="evenodd" d="M38.2056 48H9.79447C4.40811 48 0 43.5908 0 38.2091V9.79093C0 4.40323 4.40811 0 9.79447 0H38.2056C43.5919 0 48 4.4092 48 9.79093V38.2091C48 43.5908 43.5919 48 38.2056 48Z" fill="#4C7EBF"/>
<path fill-rule="evenodd" clip-rule="evenodd" d="M30.124 35.369C27.9527 35.369 26.5808 35.2735 24.1232 34.647C20.6159 33.764 17.7348 31.8905 15.993 29.3548C13.434 25.6198 13.4937 21.4135 16.1421 17.8038C17.9137 15.3814 20.8366 13.6571 24.3559 12.9352C26.7299 12.4459 28.0601 12.4578 30.0643 12.4757C30.4282 12.4757 30.8219 12.4877 31.2514 12.4877V17.9112C30.798 17.9112 30.3984 17.9112 30.0285 17.8992C28.1734 17.8873 27.2489 17.8813 25.4355 18.2572C23.2285 18.7107 21.4808 19.6951 20.5025 21.0316C19.226 22.7619 19.22 24.4862 20.4667 26.3C21.4569 27.7379 23.2166 28.8357 25.4475 29.3906C27.7499 29.9693 28.6805 29.9574 31.1619 29.9395L31.2036 35.363C30.8099 35.363 30.4461 35.369 30.124 35.369Z" fill="white"/>
</svg>
